# xmcd CD database file
#
# Track frame offsets:
#	150
#	16011
#	31552
#	44095
#	63281
#	74515
#	90861
#	107784
#	118254
#	135137
#	153227
#	170822
#
# Disc length: 2544 seconds
#
# Revision: 0
# Processed by: cddbd v1.5.2PL0 Copyright (c) Steve Scherf et al.
# Submitted via: CDex 1.51
#
DISCID=9209ee0c
DTITLE=Tarwater - Hard Country Music
DYEAR=2006
DGENRE=Country
TTITLE0=Honky Tonk World
TTITLE1=Party Doll
TTITLE2=Get Western
TTITLE3=One Horse Town
TTITLE4=Life Is A Convoy
TTITLE5=Wrongly Confused
TTITLE6=Think About Rain
TTITLE7=Pick Up The Phone
TTITLE8=Cowboy Cadillac Band
TTITLE9=My Heart Ain't In It
TTITLE10=Ponderin' On Prayin' And A' Pickin'
TTITLE11=Oil In My Lamp - Amazing Grace
EXTD=YEAR: 2006
EXTT0=
EXTT1=
EXTT2=
EXTT3=
EXTT4=
EXTT5=
EXTT6=
EXTT7=
EXTT8=
EXTT9=
EXTT10=
EXTT11=
PLAYORDER=
